<svg width="24" height="24" viewBox="0 0 24 24" fill="none" xmlns="http://www.w3.org/2000/svg">
<path fill-rule="evenodd" clip-rule="evenodd" d="M8.25003 7.002V6C8.25003 5.00544 8.64511 4.05161 9.34838 3.34835C10.0516 2.64509 11.0055 2.25 12 2.25C12.9946 2.25 13.9484 2.64509 14.6517 3.34835C15.3549 4.05161 15.75 5.00544 15.75 6V7.002C18.434 7.014 19.86 7.122 20.66 8.098C21.56 9.196 21.229 10.856 20.565 14.177L19.965 17.177C19.503 19.486 19.272 20.64 18.442 21.32C17.613 22 16.436 22 14.082 22H9.91803C7.56303 22 6.38603 22 5.55603 21.32C4.72703 20.64 4.49603 19.486 4.03403 17.177L3.43403 14.177C2.77003 10.857 2.43803 9.197 3.33803 8.098C4.13803 7.122 5.56503 7.014 8.24903 7.002H8.25003ZM9.75003 6C9.75003 5.40326 9.98708 4.83097 10.409 4.40901C10.831 3.98705 11.4033 3.75 12 3.75C12.5968 3.75 13.1691 3.98705 13.591 4.40901C14.013 4.83097 14.25 5.40326 14.25 6V7H9.75003V6ZM15 11C15.2652 11 15.5196 10.8946 15.7071 10.7071C15.8947 10.5196 16 10.2652 16 10C16 9.73478 15.8947 9.48043 15.7071 9.29289C15.5196 9.10536 15.2652 9 15 9C14.7348 9 14.4805 9.10536 14.2929 9.29289C14.1054 9.48043 14 9.73478 14 10C14 10.2652 14.1054 10.5196 14.2929 10.7071C14.4805 10.8946 14.7348 11 15 11ZM10 10C10 10.2652 9.89467 10.5196 9.70713 10.7071C9.5196 10.8946 9.26524 11 9.00003 11C8.73481 11 8.48046 10.8946 8.29292 10.7071C8.10538 10.5196 8.00003 10.2652 8.00003 10C8.00003 9.73478 8.10538 9.48043 8.29292 9.29289C8.48046 9.10536 8.73481 9 9.00003 9C9.26524 9 9.5196 9.10536 9.70713 9.29289C9.89467 9.48043 10 9.73478 10 10Z" fill="#67C4A9"/>
</svg>
