<svg width="100" height="100" viewBox="0 0 100 100" fill="none" xmlns="http://www.w3.org/2000/svg">
<path fill-rule="evenodd" clip-rule="evenodd" d="M34.3742 29.175V25C34.3742 20.856 36.0204 16.8817 38.9506 13.9515C41.8809 11.0212 45.8552 9.375 49.9992 9.375C54.1432 9.375 58.1175 11.0212 61.0477 13.9515C63.978 16.8817 65.6242 20.856 65.6242 25V29.175C76.8075 29.225 82.7492 29.675 86.0825 33.7417C89.8325 38.3167 88.4533 45.2333 85.6867 59.0708L83.1867 71.5708C81.2617 81.1917 80.2992 86 76.8408 88.8333C73.3867 91.6667 68.4825 91.6667 58.6742 91.6667H41.3242C31.5117 91.6667 26.6075 91.6667 23.1492 88.8333C19.695 86 18.7325 81.1917 16.8075 71.5708L14.3075 59.0708C11.5408 45.2375 10.1575 38.3208 13.9075 33.7417C17.2408 29.675 23.1867 29.225 34.37 29.175H34.3742ZM40.6242 25C40.6242 22.5136 41.6119 20.129 43.37 18.3709C45.1282 16.6127 47.5128 15.625 49.9992 15.625C52.4856 15.625 54.8701 16.6127 56.6283 18.3709C58.3865 20.129 59.3742 22.5136 59.3742 25V29.1667H40.6242V25ZM62.4992 45.8333C63.6042 45.8333 64.664 45.3943 65.4455 44.6129C66.2269 43.8315 66.6658 42.7717 66.6658 41.6667C66.6658 40.5616 66.2269 39.5018 65.4455 38.7204C64.664 37.939 63.6042 37.5 62.4992 37.5C61.3941 37.5 60.3343 37.939 59.5529 38.7204C58.7715 39.5018 58.3325 40.5616 58.3325 41.6667C58.3325 42.7717 58.7715 43.8315 59.5529 44.6129C60.3343 45.3943 61.3941 45.8333 62.4992 45.8333ZM41.6658 41.6667C41.6658 42.7717 41.2269 43.8315 40.4454 44.6129C39.664 45.3943 38.6042 45.8333 37.4992 45.8333C36.3941 45.8333 35.3343 45.3943 34.5529 44.6129C33.7715 43.8315 33.3325 42.7717 33.3325 41.6667C33.3325 40.5616 33.7715 39.5018 34.5529 38.7204C35.3343 37.939 36.3941 37.5 37.4992 37.5C38.6042 37.5 39.664 37.939 40.4454 38.7204C41.2269 39.5018 41.6658 40.5616 41.6658 41.6667Z" fill="#67C4A9"/>
</svg>
