<svg width="100" height="100" viewBox="0 0 100 100" fill="none" xmlns="http://www.w3.org/2000/svg">
<path fill-rule="evenodd" clip-rule="evenodd" d="M9.72908 32.8125C7.47908 37.5084 8.27074 43.0042 9.85408 53.9917L11.0124 62.0625C13.0416 76.1792 14.0582 83.2334 18.9541 87.45C23.8499 91.6667 31.0291 91.6667 45.3916 91.6667H54.6082C68.9707 91.6667 76.1499 91.6667 81.0457 87.45C85.9416 83.2334 86.9582 76.1792 88.9874 62.0625L90.1499 53.9917C91.7332 43.0042 92.5249 37.5084 90.2707 32.8125C88.0207 28.1167 83.2249 25.2584 73.6374 19.55L67.8666 16.1125C59.1666 10.925 54.8082 8.33337 49.9999 8.33337C45.1916 8.33337 40.8374 10.925 32.1332 16.1125L26.3624 19.55C16.7791 25.2584 11.9832 28.1167 9.72908 32.8125ZM49.9999 78.125C49.1711 78.125 48.3763 77.7958 47.7902 77.2097C47.2042 76.6237 46.8749 75.8288 46.8749 75V62.5C46.8749 61.6712 47.2042 60.8764 47.7902 60.2903C48.3763 59.7043 49.1711 59.375 49.9999 59.375C50.8287 59.375 51.6236 59.7043 52.2096 60.2903C52.7957 60.8764 53.1249 61.6712 53.1249 62.5V75C53.1249 75.8288 52.7957 76.6237 52.2096 77.2097C51.6236 77.7958 50.8287 78.125 49.9999 78.125Z" fill="#67C4A7"/>
</svg>
