<svg width="100" height="100" viewBox="0 0 100 100" fill="none" xmlns="http://www.w3.org/2000/svg">
<g clip-path="url(#clip0_407_54)">
<path d="M43.4382 5.89162L15.209 22.5416C13.1242 23.7009 11.3873 25.3967 10.1785 27.4532C8.96967 29.5096 8.33283 31.852 8.33399 34.2375V64.5916C8.33722 67.0008 8.98788 69.3648 10.2179 71.4362C11.4479 73.5077 13.212 75.2106 15.3257 76.3666L43.2215 94.0208C47.5298 96.3958 52.4715 96.3958 56.5548 94.1541L84.9048 76.2291C88.9882 73.9916 91.6673 69.4875 91.6673 64.5916V34.2416L91.6465 33.3916C91.5322 31.4426 90.9943 29.542 90.0704 27.8221C89.1464 26.1022 87.8585 24.6045 86.2965 23.4333L85.8506 23.1208L85.8215 23.0916C85.5902 22.881 85.3374 22.6953 85.0673 22.5375L56.834 5.89162C54.7821 4.76015 52.4771 4.16675 50.134 4.16675C47.7908 4.16675 45.4858 4.76015 43.434 5.89162H43.4382Z" fill="#67C4A7"/>
<circle cx="51" cy="49" r="13.5" stroke="white" stroke-width="3"/>
</g>
<defs>
<clipPath id="clip0_407_54">
<rect width="100" height="100" fill="white"/>
</clipPath>
</defs>
</svg>
