<svg width="100" height="100" viewBox="0 0 100 100" fill="none" xmlns="http://www.w3.org/2000/svg">
<path fill-rule="evenodd" clip-rule="evenodd" d="M85.0431 41.0833C84.8002 41.0716 84.5571 41.0675 84.3139 41.0708H74.1681C65.8681 41.0708 58.7598 47.6583 58.7598 56.25C58.7598 64.8417 65.8681 71.4292 74.1723 71.4292H84.3098C84.5639 71.4292 84.8098 71.4292 85.0389 71.4125C86.7522 71.3031 88.3672 70.5745 89.583 69.3626C90.7988 68.1506 91.5325 66.5379 91.6473 64.825C91.6639 64.5792 91.6639 64.3167 91.6639 64.075V48.425C91.6639 48.1833 91.6639 47.9208 91.6473 47.675C91.5326 45.9628 90.7995 44.3506 89.5845 43.1388C88.3696 41.9269 86.7556 41.1979 85.0431 41.0875V41.0833ZM73.2806 60.2958C75.4181 60.2958 77.1556 58.4875 77.1556 56.25C77.1556 54.0125 75.4181 52.2042 73.2806 52.2042C71.1431 52.2042 69.4098 54.0125 69.4098 56.25C69.4098 58.4875 71.1389 60.2958 73.2806 60.2958Z" fill="#67C4A7"/>
<path fill-rule="evenodd" clip-rule="evenodd" d="M84.309 77.5C84.4486 77.4951 84.5874 77.5231 84.7142 77.5817C84.841 77.6403 84.9522 77.7278 85.039 77.8373C85.1258 77.9468 85.1856 78.0751 85.2137 78.2119C85.2417 78.3487 85.2373 78.4903 85.2006 78.625C84.3923 81.5084 83.1132 83.9667 81.059 86.0334C78.0548 89.0625 74.2423 90.4084 69.534 91.0459C64.959 91.6667 59.1173 91.6667 51.734 91.6667H43.2465C35.8673 91.6667 30.0215 91.6667 25.4465 91.0459C20.7382 90.4084 16.9257 89.0625 13.9215 86.0334C10.9173 83.0084 9.58398 79.1667 8.95065 74.4209C8.33398 69.8084 8.33398 63.9167 8.33398 56.4792V56.0209C8.33398 48.5834 8.33398 42.6875 8.95065 38.0792C9.58398 33.3334 10.9173 29.5 13.9173 26.4625C16.9215 23.4375 20.734 22.0875 25.4423 21.4542C30.0215 20.8334 35.8673 20.8334 43.2465 20.8334H51.734C59.1132 20.8334 64.959 20.8334 69.534 21.4542C74.2423 22.0917 78.0548 23.4375 81.059 26.4625C83.1132 28.5334 84.3923 30.9917 85.2006 33.8792C85.2365 34.0137 85.2404 34.1548 85.2119 34.291C85.1835 34.4273 85.1235 34.5551 85.0369 34.664C84.9502 34.7729 84.8392 34.8601 84.7128 34.9184C84.5864 34.9768 84.4481 35.0047 84.309 35H74.1715C62.7798 35 52.7423 44.0709 52.7423 56.25C52.7423 68.4292 62.784 77.5 74.1756 77.5H84.309ZM23.3923 37.025C22.9956 37.0267 22.6031 37.1064 22.2372 37.2598C21.8714 37.4131 21.5393 37.637 21.2599 37.9187C20.9806 38.2003 20.7594 38.5343 20.6091 38.9014C20.4588 39.2685 20.3823 39.6617 20.384 40.0584C20.384 41.7375 21.7298 43.0959 23.3923 43.0959H39.459C41.1257 43.0959 42.4715 41.7375 42.4715 40.0584C42.4737 39.2568 42.1577 38.4871 41.5929 37.9184C41.028 37.3497 40.2605 37.0283 39.459 37.025H23.3923Z" fill="#67C4A7"/>
<path d="M32.4043 16.7667L40.5626 10.7542C42.6916 9.18032 45.2693 8.33093 47.9168 8.33093C50.5643 8.33093 53.142 9.18032 55.271 10.7542L63.4751 16.8C60.0418 16.6667 56.2085 16.6667 52.0126 16.6667H42.971C39.1293 16.6667 35.6001 16.6667 32.4043 16.7667Z" fill="#67C4A7"/>
</svg>
