<svg width="100" height="100" viewBox="0 0 100 100" fill="none" xmlns="http://www.w3.org/2000/svg">
<path d="M15.8086 62.375C18.0461 73.5708 19.167 79.1667 22.8628 82.7708C23.5461 83.4375 24.2878 84.0417 25.0711 84.5792C29.3336 87.5 35.042 87.5 46.4586 87.5H53.5545C64.967 87.5 70.6711 87.5 74.9295 84.5833C75.7211 84.0417 76.4586 83.4333 77.1378 82.7708C80.8378 79.1667 81.9586 73.5708 84.1961 62.3792C87.4086 46.3125 89.017 38.2792 85.317 32.5875C84.6466 31.5557 83.8641 30.6012 82.9836 29.7417C78.1253 25 69.9378 25 53.5545 25H46.4586C30.067 25 21.8753 25 17.017 29.7417C16.138 30.6015 15.3568 31.5559 14.6878 32.5875C10.9878 38.2792 12.5961 46.3125 15.8128 62.3792L15.8086 62.375Z" stroke="#67C4A7" stroke-width="6.25"/>
<path d="M62.5007 45.8333C64.8018 45.8333 66.6673 43.9679 66.6673 41.6667C66.6673 39.3655 64.8018 37.5 62.5007 37.5C60.1995 37.5 58.334 39.3655 58.334 41.6667C58.334 43.9679 60.1995 45.8333 62.5007 45.8333Z" fill="#67C4A7"/>
<path d="M37.5007 45.8333C39.8018 45.8333 41.6673 43.9679 41.6673 41.6667C41.6673 39.3655 39.8018 37.5 37.5007 37.5C35.1995 37.5 33.334 39.3655 33.334 41.6667C33.334 43.9679 35.1995 45.8333 37.5007 45.8333Z" fill="#67C4A7"/>
<path d="M37.5 25V20.8333C37.5 17.5181 38.817 14.3387 41.1612 11.9945C43.5054 9.65027 46.6848 8.33331 50 8.33331C53.3152 8.33331 56.4946 9.65027 58.8388 11.9945C61.183 14.3387 62.5 17.5181 62.5 20.8333V25" stroke="#67C4A7" stroke-width="6.25" stroke-linecap="round"/>
</svg>
