<svg width="100" height="100" viewBox="0 0 100 100" fill="none" xmlns="http://www.w3.org/2000/svg">
<path d="M57.2173 90.7083L59.4757 86.8916L54.1007 83.7083L51.8382 87.525L57.2173 90.7083ZM40.5257 86.8916L42.784 90.7083L48.159 87.525L45.9048 83.7083L40.5257 86.8916ZM51.8382 87.525C51.6434 87.8367 51.3726 88.0937 51.0511 88.2719C50.7297 88.4501 50.3682 88.5436 50.0006 88.5436C49.6331 88.5436 49.2716 88.4501 48.9502 88.2719C48.6287 88.0937 48.3579 87.8367 48.1632 87.525L42.784 90.7083C46.0048 96.1541 53.9923 96.1541 57.2173 90.7083L51.8423 87.525H51.8382ZM43.7506 11.4583H56.2506V5.20831H43.7506V11.4583ZM88.5423 43.75V47.9166H94.7923V43.75H88.5423ZM11.459 47.9166V43.75H5.20898V47.9166H11.459ZM5.20898 47.9166C5.20898 52.7291 5.20898 56.4916 5.41732 59.5291C5.62565 62.5916 6.05482 65.1416 7.03398 67.5L12.809 65.1083C12.1965 63.6416 11.8382 61.85 11.6507 59.1041C11.459 56.3291 11.459 52.8125 11.459 47.9166H5.20898ZM32.5131 76.0083C27.2798 75.9166 24.5382 75.5833 22.3882 74.6916L20.0007 80.4666C23.3548 81.8583 27.1715 82.1708 32.4048 82.2625L32.5131 76.0083ZM7.03398 67.5C8.23801 70.4069 10.0028 73.0481 12.2276 75.273C14.4525 77.4978 17.0938 79.2626 20.0007 80.4666L22.3882 74.6916C18.0493 72.8944 14.6063 69.4472 12.809 65.1083L7.03398 67.5ZM88.5423 47.9166C88.5423 52.8125 88.5423 56.3291 88.3506 59.1041C88.1631 61.85 87.8048 63.6416 87.1965 65.1083L92.9673 67.5C93.9465 65.1416 94.3756 62.5916 94.5882 59.5291C94.7965 56.4916 94.7923 52.7291 94.7923 47.9166H88.5423ZM67.5965 82.2541C72.8298 82.1666 76.6465 81.8583 80.0006 80.4666L77.609 74.6916C75.4631 75.5833 72.7215 75.9166 67.4923 76.0083L67.5965 82.2583V82.2541ZM87.1965 65.1083C85.3992 69.4472 81.952 72.8944 77.6132 74.6916L80.0006 80.4666C82.9076 79.2626 85.5488 77.4978 87.7737 75.273C89.9985 73.0481 91.7633 70.4069 92.9673 67.5L87.1965 65.1083ZM56.2506 11.4583C63.1298 11.4583 68.0715 11.4583 71.9256 11.8291C75.734 12.1916 78.1548 12.8833 80.0882 14.0666L83.3506 8.73748C80.2715 6.85415 76.7798 6.01248 72.5173 5.60415C68.3006 5.20415 63.009 5.20831 56.2506 5.20831V11.4583ZM94.7923 43.75C94.7923 36.9916 94.7923 31.7041 94.3923 27.4833C93.9881 23.2208 93.1465 19.725 91.2631 16.65L85.9298 19.9125C87.1173 21.8458 87.809 24.2666 88.1715 28.0791C88.5381 31.9291 88.5423 36.8708 88.5423 43.75H94.7923ZM80.084 14.0666C82.468 15.5262 84.4727 17.5295 85.934 19.9125L91.2631 16.65C89.2872 13.4249 86.5757 10.7134 83.3506 8.73748L80.0882 14.0708L80.084 14.0666ZM43.7506 5.20831C36.9923 5.20831 31.7048 5.20831 27.484 5.60415C23.2215 6.01248 19.7257 6.85415 16.6507 8.73748L19.9131 14.0708C21.8465 12.8833 24.2673 12.1916 28.0798 11.8291C31.9298 11.4625 36.8715 11.4583 43.7506 11.4583V5.20831ZM11.459 43.75C11.459 36.8708 11.459 31.9291 11.8298 28.075C12.1923 24.2666 12.884 21.8458 14.0673 19.9125L8.73815 16.6541C6.85482 19.7291 6.01315 23.2208 5.60482 27.4833C5.20898 31.7083 5.20898 36.9916 5.20898 43.75H11.459ZM16.6507 8.73748C13.4256 10.7134 10.7141 13.4291 8.73815 16.6541L14.0715 19.9125C15.5304 17.5304 17.5321 15.5273 19.9131 14.0666L16.6507 8.73748ZM45.9007 83.7083C45.059 82.2791 44.3173 81.0166 43.5923 80.025C42.8466 78.9376 41.8779 78.0214 40.7506 77.3375L37.609 82.7416C37.8048 82.8583 38.0756 83.0666 38.5423 83.7083C39.0465 84.4 39.6173 85.3583 40.5257 86.8916L45.9007 83.7083ZM32.4048 82.2541C34.2381 82.2875 35.3923 82.3125 36.2757 82.4083C37.1007 82.5 37.4215 82.6333 37.609 82.7416L40.7506 77.3375C39.584 76.6912 38.2926 76.3019 36.9632 76.1958C35.7215 76.0583 34.2298 76.0375 32.5131 76.0083L32.4048 82.2625V82.2541ZM59.4757 86.8916C60.384 85.3625 60.9548 84.4 61.459 83.7083C61.9256 83.0666 62.1965 82.8583 62.3923 82.7416L59.2506 77.3375C58.0423 78.0458 57.1673 78.9833 56.409 80.025C55.6881 81.0166 54.9423 82.275 54.0965 83.7083L59.4757 86.8916ZM67.4923 76.0083C65.7757 76.0375 64.2798 76.0583 63.0381 76.1958C61.7423 76.3416 60.4715 76.6292 59.2506 77.3375L62.3923 82.7416C62.5798 82.6333 62.9006 82.5 63.7256 82.4083C64.609 82.3125 65.7673 82.2833 67.6007 82.2541L67.4923 76.0041V76.0083Z" fill="#6D6D6D"/>
<path d="M33.334 37.5H66.6673M33.334 52.0833H56.2507" stroke="#6D6D6D" stroke-width="6.25" stroke-linecap="round"/>
</svg>
