<svg width="100" height="100" viewBox="0 0 100 100" fill="none" xmlns="http://www.w3.org/2000/svg">
<path d="M45.834 8.33331C66.534 8.33331 83.334 25.1333 83.334 45.8333C83.334 66.5333 66.534 83.3333 45.834 83.3333C25.134 83.3333 8.33398 66.5333 8.33398 45.8333C8.33398 25.1333 25.134 8.33331 45.834 8.33331ZM45.834 75C61.9465 75 75.0006 61.9458 75.0006 45.8333C75.0006 29.7208 61.9465 16.6666 45.834 16.6666C29.7215 16.6666 16.6673 29.7208 16.6673 45.8333C16.6673 61.9458 29.7215 75 45.834 75ZM81.1881 75.2958L92.9756 87.0791L87.0798 92.975L75.2965 81.1875L81.1881 75.2958Z" fill="#7D7D7D"/>
</svg>
