<svg width="100" height="100" viewBox="0 0 100 100" fill="none" xmlns="http://www.w3.org/2000/svg">
<path d="M68.7495 62.5C66.6648 62.4993 64.6013 62.917 62.681 63.7282C60.7606 64.5394 59.0226 65.7277 57.5698 67.2227L39.562 55.6484C40.9785 52.016 40.9785 47.984 39.562 44.3516L57.5698 32.7773C60.2747 35.5481 63.9121 37.2158 67.7767 37.4571C71.6414 37.6984 75.4579 36.4962 78.4865 34.0834C81.5151 31.6706 83.5398 28.2192 84.1683 24.3984C84.7967 20.5776 83.9841 16.6595 81.8878 13.4038C79.7916 10.1481 76.5611 7.78674 72.8228 6.77753C69.0845 5.76832 65.1046 6.18316 61.6547 7.94162C58.2048 9.70008 55.5308 12.6769 54.1511 16.2949C52.7713 19.9129 52.7841 23.9143 54.187 27.5234L36.1792 39.0977C34.0107 36.8714 31.2276 35.3424 28.1856 34.706C25.1436 34.0697 21.9809 34.355 19.1019 35.5254C16.2229 36.6958 13.7583 38.6982 12.0232 41.2766C10.2881 43.8549 9.36133 46.8922 9.36133 50C9.36133 53.1078 10.2881 56.1451 12.0232 58.7234C13.7583 61.3018 16.2229 63.3042 19.1019 64.4746C21.9809 65.645 25.1436 65.9303 28.1856 65.294C31.2276 64.6576 34.0107 63.1286 36.1792 60.9023L54.187 72.4766C52.9806 75.588 52.8021 79.0039 53.6776 82.2242C54.5531 85.4444 56.4365 88.2997 59.0522 90.3721C61.6679 92.4444 64.8784 93.6249 68.2135 93.7406C71.5486 93.8563 74.8331 92.9012 77.5862 91.0152C80.3392 89.1291 82.416 86.4112 83.5126 83.2594C84.6092 80.1076 84.6679 76.6875 83.6801 73.4999C82.6923 70.3123 80.7099 67.5247 78.0232 65.5454C75.3364 63.566 72.0866 62.4988 68.7495 62.5ZM68.7495 12.5C70.6037 12.5 72.4162 13.0498 73.9579 14.08C75.4997 15.1101 76.7013 16.5743 77.4109 18.2873C78.1204 20.0004 78.3061 21.8854 77.9443 23.704C77.5826 25.5225 76.6897 27.193 75.3786 28.5041C74.0675 29.8152 72.397 30.7081 70.5785 31.0699C68.7599 31.4316 66.8749 31.2459 65.1618 30.5364C63.4488 29.8268 61.9846 28.6252 60.9544 27.0835C59.9243 25.5418 59.3745 23.7292 59.3745 21.875C59.3745 19.3886 60.3622 17.004 62.1203 15.2459C63.8785 13.4877 66.2631 12.5 68.7495 12.5ZM24.9995 59.375C23.1453 59.375 21.3327 58.8252 19.791 57.795C18.2493 56.7649 17.0477 55.3007 16.3381 53.5877C15.6285 51.8746 15.4429 49.9896 15.8046 48.171C16.1663 46.3525 17.0592 44.682 18.3703 43.3709C19.6815 42.0598 21.3519 41.1669 23.1705 40.8051C24.9891 40.4434 26.8741 40.6291 28.5871 41.3386C30.3002 42.0482 31.7644 43.2498 32.7945 44.7915C33.8246 46.3332 34.3745 48.1458 34.3745 50C34.3745 52.4864 33.3868 54.871 31.6286 56.6291C29.8704 58.3873 27.4859 59.375 24.9995 59.375ZM68.7495 87.5C66.8953 87.5 65.0827 86.9502 63.541 85.92C61.9993 84.8899 60.7977 83.4257 60.0881 81.7127C59.3785 79.9996 59.1929 78.1146 59.5546 76.296C59.9164 74.4775 60.8092 72.807 62.1203 71.4959C63.4315 70.1848 65.1019 69.2919 66.9205 68.9301C68.7391 68.5684 70.6241 68.7541 72.3371 69.4636C74.0502 70.1732 75.5144 71.3748 76.5445 72.9165C77.5746 74.4582 78.1245 76.2708 78.1245 78.125C78.1245 80.6114 77.1368 82.996 75.3786 84.7541C73.6205 86.5123 71.2359 87.5 68.7495 87.5Z" fill="#6D6D6D"/>
</svg>
