<svg width="100" height="100" viewBox="0 0 100 100" fill="none" xmlns="http://www.w3.org/2000/svg">
<path d="M14.584 45.8333V58.3333C14.584 74.0458 14.584 81.9041 19.4673 86.7833C24.3465 91.6666 32.2048 91.6666 47.9173 91.6666H52.084C67.7965 91.6666 75.6548 91.6666 80.534 86.7833C85.4173 81.9041 85.4173 74.0458 85.4173 58.3333V45.8333" stroke="#A1A1A1" stroke-width="6.25"/>
<path d="M39.5839 8.33331H60.4172L63.1339 35.4875C63.3128 37.3198 63.1064 39.1694 62.5278 40.9172C61.9493 42.665 61.0113 44.2724 59.7744 45.636C58.5375 46.9997 57.0289 48.0894 55.3456 48.8351C53.6623 49.5809 51.8416 49.9661 50.0005 49.9661C48.1594 49.9661 46.3387 49.5809 44.6555 48.8351C42.9722 48.0894 41.4636 46.9997 40.2266 45.636C38.9897 44.2724 38.0518 42.665 37.4732 40.9172C36.8946 39.1694 36.6882 37.3198 36.8672 35.4875L39.5839 8.33331Z" stroke="#A1A1A1" stroke-width="6.25"/>
<path d="M13.8757 22.2958C14.6174 18.5875 14.9882 16.7333 15.7424 15.2291C16.5282 13.6626 17.6347 12.2789 18.9899 11.1677C20.3452 10.0565 21.9189 9.24271 23.6091 8.77915C25.2341 8.33331 27.1257 8.33331 30.9091 8.33331H39.5841L36.5632 38.5208C36.4038 40.2484 35.8935 41.9253 35.0635 43.4489C34.2335 44.9724 33.1012 46.3105 31.7361 47.3813C30.371 48.4521 28.8017 49.233 27.1243 49.6762C25.4469 50.1194 23.6967 50.2156 21.9808 49.9589C20.265 49.7022 18.6195 49.0981 17.1453 48.1834C15.671 47.2687 14.399 46.0627 13.4069 44.6394C12.4149 43.216 11.7239 41.6051 11.376 39.9054C11.0282 38.2056 11.031 36.4528 11.3841 34.7541L13.8757 22.2958ZM86.1257 22.2958C85.3841 18.5875 85.0132 16.7333 84.2591 15.2291C83.4733 13.6626 82.3668 12.2789 81.0116 11.1677C79.6563 10.0565 78.0825 9.24271 76.3924 8.77915C74.7674 8.33331 72.8757 8.33331 69.0924 8.33331H60.4174L63.4382 38.5208C63.5977 40.2484 64.108 41.9253 64.938 43.4489C65.768 44.9724 66.9003 46.3105 68.2654 47.3813C69.6305 48.4521 71.1998 49.233 72.8772 49.6762C74.5546 50.1194 76.3048 50.2156 78.0206 49.9589C79.7365 49.7022 81.3819 49.0981 82.8562 48.1834C84.3305 47.2687 85.6025 46.0627 86.5945 44.6394C87.5866 43.216 88.2776 41.6051 88.6255 39.9054C88.9733 38.2056 88.9705 36.4528 88.6174 34.7541L86.1257 22.2958Z" stroke="#A1A1A1" stroke-width="6.25"/>
<path d="M39.584 89.5833V77.0833C39.584 73.1875 39.584 71.2416 40.4215 69.7916C40.97 68.8416 41.7589 68.0527 42.709 67.5041C44.159 66.6666 46.1048 66.6666 50.0007 66.6666C53.8965 66.6666 55.8423 66.6666 57.2923 67.5041C58.2424 68.0527 59.0313 68.8416 59.5798 69.7916C60.4173 71.2416 60.4173 73.1875 60.4173 77.0833V89.5833" stroke="#A1A1A1" stroke-width="6.25" stroke-linecap="round"/>
</svg>
