<svg width="100" height="100" viewBox="0 0 100 100" fill="none" xmlns="http://www.w3.org/2000/svg">
<path d="M50 54.1666C44.4747 54.1666 39.1756 51.9717 35.2686 48.0647C31.3616 44.1577 29.1667 38.8586 29.1667 33.3333H37.5C37.5 36.6485 38.817 39.8279 41.1612 42.1721C43.5054 44.5163 46.6848 45.8333 50 45.8333C53.3152 45.8333 56.4946 44.5163 58.8388 42.1721C61.183 39.8279 62.5 36.6485 62.5 33.3333H70.8333C70.8333 38.8586 68.6384 44.1577 64.7314 48.0647C60.8244 51.9717 55.5253 54.1666 50 54.1666ZM50 12.5C53.3152 12.5 56.4946 13.8169 58.8388 16.1611C61.183 18.5053 62.5 21.6848 62.5 25H37.5C37.5 21.6848 38.817 18.5053 41.1612 16.1611C43.5054 13.8169 46.6848 12.5 50 12.5ZM79.1667 25H70.8333C70.8333 22.2641 70.2945 19.555 69.2475 17.0274C68.2005 14.4998 66.6659 12.2031 64.7314 10.2686C62.7968 8.33401 60.5002 6.79944 57.9726 5.75247C55.445 4.7055 52.7359 4.16663 50 4.16663C44.4747 4.16663 39.1756 6.36156 35.2686 10.2686C31.3616 14.1756 29.1667 19.4746 29.1667 25H20.8333C16.2083 25 12.5 28.7083 12.5 33.3333V83.3333C12.5 85.5434 13.378 87.663 14.9408 89.2258C16.5036 90.7886 18.6232 91.6666 20.8333 91.6666H79.1667C81.3768 91.6666 83.4964 90.7886 85.0592 89.2258C86.622 87.663 87.5 85.5434 87.5 83.3333V33.3333C87.5 31.1232 86.622 29.0035 85.0592 27.4407C83.4964 25.8779 81.3768 25 79.1667 25Z" fill="#67C4A7"/>
<path d="M18.7706 77V69.3636H21.0824V70.7656H21.1669C21.326 70.3016 21.5945 69.9354 21.9723 69.6669C22.3501 69.3984 22.8009 69.2642 23.3246 69.2642C23.8549 69.2642 24.3089 69.4001 24.6868 69.6719C25.0646 69.9437 25.3049 70.3082 25.4077 70.7656H25.4872C25.6297 70.3116 25.9081 69.9486 26.3224 69.6768C26.7367 69.4018 27.2256 69.2642 27.7891 69.2642C28.5116 69.2642 29.0982 69.4962 29.549 69.9602C29.9998 70.4209 30.2251 71.054 30.2251 71.8594V77H27.794V72.4162C27.794 72.035 27.6963 71.745 27.5007 71.5462C27.3052 71.344 27.0516 71.2429 26.7401 71.2429C26.4053 71.2429 26.1418 71.3523 25.9496 71.571C25.7607 71.7865 25.6662 72.0765 25.6662 72.4411V77H23.3295V72.3913C23.3295 72.0367 23.2334 71.7566 23.0412 71.5511C22.849 71.3456 22.5954 71.2429 22.2805 71.2429C22.0684 71.2429 21.8812 71.2943 21.7188 71.397C21.5563 71.4964 21.4287 71.639 21.3359 71.8246C21.2464 72.0102 21.2017 72.2289 21.2017 72.4808V77H18.7706ZM35.2962 77.1442C34.4941 77.1442 33.8047 76.9801 33.228 76.652C32.6546 76.3205 32.2121 75.8598 31.9006 75.2699C31.5923 74.6766 31.4382 73.9889 31.4382 73.2067C31.4382 72.4212 31.5923 71.7334 31.9006 71.1435C32.2121 70.5502 32.6546 70.0895 33.228 69.7614C33.8047 69.4299 34.4941 69.2642 35.2962 69.2642C36.0982 69.2642 36.786 69.4299 37.3594 69.7614C37.9361 70.0895 38.3786 70.5502 38.6868 71.1435C38.9983 71.7334 39.1541 72.4212 39.1541 73.2067C39.1541 73.9889 38.9983 74.6766 38.6868 75.2699C38.3786 75.8598 37.9361 76.3205 37.3594 76.652C36.786 76.9801 36.0982 77.1442 35.2962 77.1442ZM35.3111 75.3097C35.6027 75.3097 35.8497 75.2202 36.0518 75.0412C36.254 74.8622 36.4081 74.6136 36.5142 74.2955C36.6236 73.9773 36.6783 73.6094 36.6783 73.1918C36.6783 72.7675 36.6236 72.3963 36.5142 72.0781C36.4081 71.7599 36.254 71.5114 36.0518 71.3324C35.8497 71.1534 35.6027 71.0639 35.3111 71.0639C35.0095 71.0639 34.7543 71.1534 34.5455 71.3324C34.34 71.5114 34.1825 71.7599 34.0732 72.0781C33.9671 72.3963 33.9141 72.7675 33.9141 73.1918C33.9141 73.6094 33.9671 73.9773 34.0732 74.2955C34.1825 74.6136 34.34 74.8622 34.5455 75.0412C34.7543 75.2202 35.0095 75.3097 35.3111 75.3097ZM40.3995 77V66.8182H42.8306V70.6712H42.8803C42.9798 70.4392 43.1206 70.2154 43.3029 70C43.4885 69.7846 43.7238 69.6089 44.0089 69.473C44.2972 69.3338 44.6419 69.2642 45.043 69.2642C45.5733 69.2642 46.0688 69.4034 46.5295 69.6818C46.9935 69.9602 47.368 70.3894 47.6531 70.9695C47.9381 71.5495 48.0806 72.2886 48.0806 73.1868C48.0806 74.0518 47.9431 74.776 47.668 75.3594C47.3962 75.9427 47.0283 76.3802 46.5643 76.6719C46.1036 76.9635 45.5915 77.1094 45.0281 77.1094C44.6436 77.1094 44.3105 77.0464 44.0288 76.9205C43.747 76.7945 43.5101 76.6288 43.3178 76.4233C43.1289 76.2178 42.9831 75.9974 42.8803 75.7621H42.8058V77H40.3995ZM42.7809 73.1818C42.7809 73.5928 42.8356 73.9508 42.945 74.2557C43.0576 74.5606 43.2184 74.7976 43.4272 74.9666C43.6393 75.1323 43.8929 75.2152 44.1879 75.2152C44.4862 75.2152 44.7397 75.1323 44.9485 74.9666C45.1573 74.7976 45.3147 74.5606 45.4208 74.2557C45.5302 73.9508 45.5849 73.5928 45.5849 73.1818C45.5849 72.7708 45.5302 72.4145 45.4208 72.1129C45.3147 71.8113 45.1573 71.5777 44.9485 71.4119C44.743 71.2462 44.4895 71.1634 44.1879 71.1634C43.8896 71.1634 43.636 71.2446 43.4272 71.407C43.2184 71.5694 43.0576 71.8014 42.945 72.103C42.8356 72.4046 42.7809 72.7642 42.7809 73.1818ZM49.3546 77V69.3636H51.6664V70.7656H51.7509C51.91 70.3016 52.1784 69.9354 52.5563 69.6669C52.9341 69.3984 53.3849 69.2642 53.9086 69.2642C54.4389 69.2642 54.8929 69.4001 55.2708 69.6719C55.6486 69.9437 55.8889 70.3082 55.9917 70.7656H56.0712C56.2137 70.3116 56.4921 69.9486 56.9064 69.6768C57.3207 69.4018 57.8096 69.2642 58.373 69.2642C59.0956 69.2642 59.6822 69.4962 60.133 69.9602C60.5837 70.4209 60.8091 71.054 60.8091 71.8594V77H58.378V72.4162C58.378 72.035 58.2802 71.745 58.0847 71.5462C57.8891 71.344 57.6356 71.2429 57.324 71.2429C56.9893 71.2429 56.7258 71.3523 56.5336 71.571C56.3446 71.7865 56.2502 72.0765 56.2502 72.4411V77H53.9135V72.3913C53.9135 72.0367 53.8174 71.7566 53.6252 71.5511C53.4329 71.3456 53.1794 71.2429 52.8645 71.2429C52.6524 71.2429 52.4651 71.2943 52.3027 71.397C52.1403 71.4964 52.0127 71.639 51.9199 71.8246C51.8304 72.0102 51.7857 72.2289 51.7857 72.4808V77H49.3546ZM64.4682 77.1293C63.981 77.1293 63.5485 77.0481 63.1706 76.8857C62.7961 76.7199 62.4995 76.4714 62.2807 76.1399C62.0653 75.8052 61.9576 75.3859 61.9576 74.8821C61.9576 74.4579 62.0321 74.0999 62.1813 73.8082C62.3304 73.5166 62.5359 73.2796 62.7978 73.0973C63.0596 72.915 63.3612 72.7775 63.7026 72.6847C64.044 72.5885 64.4086 72.5239 64.7963 72.4908C65.2305 72.451 65.5802 72.4096 65.8453 72.3665C66.1105 72.3201 66.3027 72.2554 66.4221 72.1726C66.5447 72.0864 66.606 71.9654 66.606 71.8097V71.7848C66.606 71.5296 66.5182 71.3324 66.3425 71.1932C66.1668 71.054 65.9299 70.9844 65.6316 70.9844C65.3101 70.9844 65.0516 71.054 64.856 71.1932C64.6605 71.3324 64.5362 71.5246 64.4831 71.7699L62.2409 71.6903C62.3072 71.2263 62.4779 70.812 62.753 70.4474C63.0314 70.0795 63.4126 69.7912 63.8965 69.5824C64.3837 69.3703 64.9687 69.2642 65.6515 69.2642C66.1387 69.2642 66.5878 69.3222 66.9988 69.4382C67.4097 69.5509 67.7677 69.7166 68.0726 69.9354C68.3775 70.1508 68.6129 70.416 68.7786 70.7308C68.9476 71.0457 69.0321 71.4053 69.0321 71.8097V77H66.7452V75.9361H66.6855C66.5497 76.1946 66.3757 76.4134 66.1635 76.5923C65.9547 76.7713 65.7078 76.9055 65.4228 76.995C65.141 77.0845 64.8229 77.1293 64.4682 77.1293ZM65.2189 75.5384C65.4808 75.5384 65.7161 75.4853 65.9249 75.3793C66.137 75.2732 66.306 75.1274 66.432 74.9418C66.5579 74.7528 66.6209 74.5341 66.6209 74.2855V73.5597C66.5513 73.5961 66.4668 73.6293 66.3674 73.6591C66.2712 73.6889 66.1652 73.7171 66.0492 73.7436C65.9332 73.7701 65.8139 73.7933 65.6912 73.8132C65.5686 73.8331 65.4509 73.8513 65.3382 73.8679C65.1096 73.9044 64.914 73.9607 64.7516 74.0369C64.5925 74.1132 64.4699 74.2126 64.3837 74.3352C64.3008 74.4545 64.2594 74.5971 64.2594 74.7628C64.2594 75.0147 64.3489 75.2069 64.5279 75.3395C64.7102 75.4721 64.9405 75.5384 65.2189 75.5384ZM70.5186 77V69.3636H72.8801V70.7557H72.9597C73.0989 70.2519 73.3259 69.8774 73.6408 69.6321C73.9557 69.3835 74.3219 69.2592 74.7395 69.2592C74.8522 69.2592 74.9682 69.2675 75.0875 69.2841C75.2069 69.2973 75.3179 69.3189 75.4206 69.3487V71.4616C75.3046 71.4219 75.1522 71.3904 74.9632 71.3672C74.7776 71.344 74.6119 71.3324 74.4661 71.3324C74.1777 71.3324 73.9176 71.397 73.6855 71.5263C73.4569 71.6522 73.2762 71.8295 73.1436 72.0582C73.0144 72.2836 72.9498 72.5488 72.9498 72.8537V77H70.5186ZM81.0771 69.3636V71.1534H76.2596V69.3636H81.0771ZM77.2688 67.5341H79.6999V74.5987C79.6999 74.7479 79.7231 74.8688 79.7695 74.9616C79.8192 75.0511 79.8905 75.1158 79.9833 75.1555C80.0761 75.192 80.1871 75.2102 80.3164 75.2102C80.4092 75.2102 80.507 75.2019 80.6097 75.1854C80.7158 75.1655 80.7953 75.1489 80.8484 75.1357L81.2163 76.8906C81.1003 76.9238 80.9362 76.9652 80.7241 77.0149C80.5153 77.0646 80.265 77.0961 79.9734 77.1094C79.4033 77.1359 78.9144 77.0696 78.5067 76.9105C78.1024 76.7481 77.7925 76.4962 77.5771 76.1548C77.3649 75.8134 77.2622 75.3842 77.2688 74.8672V67.5341Z" fill="white"/>
</svg>
