<svg width="24" height="24" viewBox="0 0 24 24" fill="none" xmlns="http://www.w3.org/2000/svg">
<path d="M15 11C15.2652 11 15.5196 10.8946 15.7071 10.7071C15.8946 10.5196 16 10.2652 16 10C16 9.73478 15.8946 9.48043 15.7071 9.29289C15.5196 9.10536 15.2652 9 15 9C14.7348 9 14.4804 9.10536 14.2929 9.29289C14.1054 9.48043 14 9.73478 14 10C14 10.2652 14.1054 10.5196 14.2929 10.7071C14.4804 10.8946 14.7348 11 15 11ZM10 10C10 10.2652 9.89464 10.5196 9.70711 10.7071C9.51957 10.8946 9.26522 11 9 11C8.73478 11 8.48043 10.8946 8.29289 10.7071C8.10536 10.5196 8 10.2652 8 10C8 9.73478 8.10536 9.48043 8.29289 9.29289C8.48043 9.10536 8.73478 9 9 9C9.26522 9 9.51957 9.10536 9.70711 9.29289C9.89464 9.48043 10 9.73478 10 10Z" fill="#67C4A9"/>
<path fill-rule="evenodd" clip-rule="evenodd" d="M8.25005 5.276V5C8.25005 4.00544 8.64514 3.05161 9.3484 2.34835C10.0517 1.64509 11.0055 1.25 12.0001 1.25C12.9946 1.25 13.9484 1.64509 14.6517 2.34835C15.355 3.05161 15.7501 4.00544 15.7501 5V5.276C16.4081 5.296 16.9951 5.333 17.5151 5.398C18.7161 5.55 19.6891 5.868 20.4401 6.602C20.6901 6.847 20.9131 7.118 21.1041 7.412C21.6761 8.292 21.7981 9.308 21.7111 10.516C21.6251 11.698 21.3291 13.182 20.9521 15.065L20.9321 15.16C20.6721 16.467 20.4641 17.507 20.2061 18.326C19.9411 19.168 19.6021 19.85 19.0361 20.402C18.8411 20.592 18.6311 20.764 18.4061 20.918C17.7541 21.365 17.0191 21.563 16.1411 21.658C15.2881 21.75 14.2281 21.75 12.8951 21.75H11.1051C9.77205 21.75 8.71205 21.75 7.85905 21.658C6.98105 21.563 6.24605 21.365 5.59405 20.918C5.36966 20.7644 5.15889 20.5917 4.96405 20.402C4.39805 19.85 4.05905 19.168 3.79405 18.326C3.53705 17.507 3.32905 16.467 3.06705 15.16L3.04805 15.065C2.67205 13.182 2.37505 11.698 2.29005 10.516C2.20205 9.308 2.32405 8.292 2.89605 7.412C3.08685 7.11835 3.30954 6.8467 3.56005 6.602C4.31205 5.868 5.28405 5.55 6.48505 5.398C7.00505 5.333 7.59205 5.296 8.25005 5.276ZM9.75005 5C9.75005 4.40326 9.98711 3.83097 10.4091 3.40901C10.831 2.98705 11.4033 2.75 12.0001 2.75C12.5968 2.75 13.1691 2.98705 13.591 3.40901C14.013 3.83097 14.2501 4.40326 14.2501 5V5.252C13.8261 5.25 13.3781 5.25 12.9051 5.25H11.0951C10.6221 5.25 10.1751 5.25 9.75005 5.252V5ZM4.60805 7.675C5.02305 7.27 5.61605 7.02 6.67305 6.886C7.74305 6.751 9.16305 6.75 11.1491 6.75H12.8521C14.8381 6.75 16.2561 6.751 17.3271 6.886C18.3841 7.02 18.9771 7.27 19.3921 7.675C19.5631 7.842 19.7151 8.028 19.8461 8.229C20.1621 8.715 20.2911 9.346 20.2151 10.409C20.1371 11.485 19.8601 12.876 19.4711 14.824C19.1991 16.183 19.0061 17.144 18.7751 17.875C18.5501 18.592 18.3101 19.015 17.9891 19.328C17.856 19.4577 17.7122 19.5758 17.5591 19.681C17.1891 19.934 16.7271 20.086 15.9801 20.167C15.2171 20.249 14.2371 20.25 12.8511 20.25H11.1501C9.76405 20.25 8.78405 20.249 8.02005 20.167C7.27405 20.087 6.81305 19.934 6.44305 19.681C6.28955 19.5755 6.14536 19.4571 6.01205 19.327C5.69105 19.014 5.45205 18.592 5.22605 17.875C4.99605 17.143 4.80205 16.183 4.53105 14.824C4.14105 12.876 3.86405 11.484 3.78705 10.408C3.71005 9.346 3.83905 8.715 4.15505 8.229C4.28551 8.02817 4.43777 7.84238 4.60905 7.675H4.60805Z" fill="#616161"/>
</svg>
