<svg width="100" height="100" viewBox="0 0 100 100" fill="none" xmlns="http://www.w3.org/2000/svg">
<path d="M62.4987 45.8333C63.6038 45.8333 64.6636 45.3943 65.445 44.6129C66.2264 43.8315 66.6654 42.7717 66.6654 41.6667C66.6654 40.5616 66.2264 39.5018 65.445 38.7204C64.6636 37.939 63.6038 37.5 62.4987 37.5C61.3936 37.5 60.3338 37.939 59.5524 38.7204C58.771 39.5018 58.332 40.5616 58.332 41.6667C58.332 42.7717 58.771 43.8315 59.5524 44.6129C60.3338 45.3943 61.3936 45.8333 62.4987 45.8333ZM41.6654 41.6667C41.6654 42.7717 41.2264 43.8315 40.445 44.6129C39.6636 45.3943 38.6038 45.8333 37.4987 45.8333C36.3936 45.8333 35.3338 45.3943 34.5524 44.6129C33.771 43.8315 33.332 42.7717 33.332 41.6667C33.332 40.5616 33.771 39.5018 34.5524 38.7204C35.3338 37.939 36.3936 37.5 37.4987 37.5C38.6038 37.5 39.6636 37.939 40.445 38.7204C41.2264 39.5018 41.6654 40.5616 41.6654 41.6667Z" fill="#67C4A9"/>
<path fill-rule="evenodd" clip-rule="evenodd" d="M34.3743 21.9833V20.8333C34.3743 16.6893 36.0205 12.7151 38.9508 9.7848C41.881 6.85454 45.8553 5.20834 49.9993 5.20834C54.1433 5.20834 58.1176 6.85454 61.0478 9.7848C63.9781 12.7151 65.6243 16.6893 65.6243 20.8333V21.9833C68.366 22.0667 70.8118 22.2208 72.9785 22.4917C77.9826 23.125 82.0368 24.45 85.166 27.5083C86.2076 28.5292 87.1368 29.6583 87.9326 30.8833C90.316 34.55 90.8243 38.7833 90.4618 43.8167C90.1035 48.7417 88.8701 54.925 87.2993 62.7708L87.216 63.1667C86.1326 68.6125 85.266 72.9458 84.191 76.3583C83.0868 79.8667 81.6743 82.7083 79.316 85.0083C78.5035 85.8 77.6285 86.5167 76.691 87.1583C73.9743 89.0208 70.9118 89.8458 67.2535 90.2417C63.6993 90.625 59.2826 90.625 53.7285 90.625H46.2701C40.716 90.625 36.2993 90.625 32.7451 90.2417C29.0868 89.8458 26.0243 89.0208 23.3076 87.1583C22.3727 86.5182 21.4944 85.7989 20.6826 85.0083C18.3243 82.7083 16.9118 79.8667 15.8076 76.3583C14.7368 72.9458 13.8701 68.6125 12.7785 63.1667L12.6993 62.7708C11.1326 54.925 9.89514 48.7417 9.54097 43.8167C9.17431 38.7833 9.68264 34.55 12.066 30.8833C12.861 29.6598 13.7888 28.5279 14.8326 27.5083C17.966 24.45 22.016 23.125 27.0201 22.4917C29.1868 22.2208 31.6326 22.0667 34.3743 21.9833ZM40.6243 20.8333C40.6243 18.3469 41.612 15.9624 43.3702 14.2042C45.1283 12.4461 47.5129 11.4583 49.9993 11.4583C52.4857 11.4583 54.8703 12.4461 56.6284 14.2042C58.3866 15.9624 59.3743 18.3469 59.3743 20.8333V21.8833C57.6076 21.875 55.741 21.875 53.7701 21.875H46.2285C44.2576 21.875 42.3951 21.875 40.6243 21.8833V20.8333ZM19.1993 31.9792C20.9285 30.2917 23.3993 29.25 27.8035 28.6917C32.2618 28.1292 38.1785 28.125 46.4535 28.125H53.5493C61.8243 28.125 67.7326 28.1292 72.1951 28.6917C76.5993 29.25 79.0701 30.2917 80.7993 31.9792C81.5118 32.675 82.1451 33.45 82.691 34.2875C84.0076 36.3125 84.5451 38.9417 84.2285 43.3708C83.9035 47.8542 82.7493 53.65 81.1285 61.7667C79.9951 67.4292 79.191 71.4333 78.2285 74.4792C77.291 77.4667 76.291 79.2292 74.9535 80.5333C74.3993 81.0738 73.7998 81.5658 73.1618 82.0042C71.6201 83.0583 69.6951 83.6917 66.5826 84.0292C63.4035 84.3708 59.3201 84.375 53.5451 84.375H46.4576C40.6826 84.375 36.5993 84.3708 33.416 84.0292C30.3076 83.6958 28.3868 83.0583 26.8451 82.0042C26.2055 81.5646 25.6047 81.0712 25.0493 80.5292C23.7118 79.225 22.716 77.4667 21.7743 74.4792C20.816 71.4292 20.0076 67.4292 18.8785 61.7667C17.2535 53.65 16.0993 47.85 15.7785 43.3667C15.4576 38.9417 15.9951 36.3125 17.3118 34.2875C17.8554 33.4507 18.4898 32.6766 19.2035 31.9792H19.1993Z" fill="#616161"/>
</svg>
