<svg width="100" height="100" viewBox="0 0 100 100" fill="none" xmlns="http://www.w3.org/2000/svg">
<path d="M31.2507 16.6667C18.5944 16.6667 8.33398 26.9271 8.33398 39.5833C8.33398 62.5 35.4173 83.3333 50.0006 88.1792C64.584 83.3333 91.6673 62.5 91.6673 39.5833C91.6673 26.9271 81.4069 16.6667 68.7506 16.6667C61.0006 16.6667 54.1465 20.5146 50.0006 26.4042C47.8875 23.3942 45.0802 20.9377 41.8163 19.2427C38.5525 17.5477 34.9284 16.6641 31.2507 16.6667Z" stroke="#6D6D6D" stroke-width="4" stroke-linecap="round" stroke-linejoin="round"/>
<path d="M73 27L75.8491 28.4245C76.7218 28.8609 77.5184 29.4351 78.2083 30.125V30.125C78.8983 30.8149 79.4725 31.6116 79.9088 32.4843L80.4016 33.4699C81.0143 34.6954 81.3333 36.0466 81.3333 37.4167V37.4167C81.3333 38.7867 81.0143 40.138 80.4016 41.3634L79.25 43.6667V43.6667C77.8701 46.4264 76.0544 48.9456 73.8726 51.1274L73 52" stroke="#67C4A9" stroke-width="4" stroke-linecap="round"/>
</svg>
