<svg width="24" height="24" viewBox="0 0 24 24" fill="none" xmlns="http://www.w3.org/2000/svg">
<path d="M11.1813 19.2705L11.1688 19.258L11.1557 19.246L9.43132 17.6716C7.68085 16.0698 6.10267 14.483 4.69577 12.9116C3.37836 11.4402 2.74941 9.85977 2.75 8.15016V8.1499C2.75 6.76998 3.20436 5.6562 4.10533 4.75523C5.0063 3.85426 6.12008 3.3999 7.5 3.3999C8.27334 3.3999 8.99588 3.56301 9.67639 3.88849C10.3659 4.21828 10.9471 4.66604 11.4272 5.23407L11.9997 5.91135L12.5725 5.23436C13.0528 4.6668 13.6342 4.21883 14.3241 3.88827C15.0043 3.56234 15.7265 3.39932 16.4994 3.3999H16.5C17.8799 3.3999 18.9937 3.85426 19.8947 4.75523C20.7956 5.6562 21.25 6.76998 21.25 8.1499C21.25 9.86195 20.6237 11.4479 19.3135 12.9277C17.918 14.5037 16.3303 16.0919 14.5488 17.6919L14.5488 17.6919L14.5447 17.6957L12.8447 19.2457L12.8319 19.2573L12.8197 19.2696C12.7155 19.3738 12.6003 19.4454 12.4682 19.491C12.2985 19.5496 12.1434 19.5749 12 19.5749C11.8574 19.5749 11.7022 19.5497 11.5312 19.4908C11.3986 19.4451 11.2842 19.3738 11.1813 19.2705Z" stroke="#616161" stroke-width="1.5"/>
<path d="M17 6L17.6838 6.34189C17.8932 6.44661 18.0844 6.58442 18.25 6.75V6.75C18.4156 6.91558 18.5534 7.10678 18.6581 7.31623L18.7764 7.55279C18.9234 7.84689 19 8.17119 19 8.5V8.5C19 8.82881 18.9234 9.15311 18.7764 9.44721L18.5 10V10C18.1688 10.6623 17.7331 11.2669 17.2094 11.7906L17 12" stroke="#67C4A9" stroke-linecap="round"/>
</svg>
