<svg width="100" height="100" viewBox="0 0 100 100" fill="none" xmlns="http://www.w3.org/2000/svg">
<path opacity="0.8" d="M9.84945 53.9917C8.26612 43.0042 7.47445 37.5084 9.72862 32.8125C11.9786 28.1167 16.7744 25.2584 26.3619 19.55L32.1328 16.1125C40.8328 10.925 45.1911 8.33337 49.9994 8.33337C54.8078 8.33337 59.1619 10.925 67.8661 16.1125L73.6369 19.55C83.2203 25.2584 88.0161 28.1167 90.2703 32.8125C92.5203 37.5084 91.7286 43.0042 90.1453 53.9917L88.9869 62.0625C86.9578 76.1792 85.9411 83.2334 81.0453 87.45C76.1494 91.6667 68.9703 91.6667 54.6078 91.6667H45.3911C31.0286 91.6667 23.8494 91.6667 18.9536 87.45C14.0578 83.2334 13.0411 76.1792 11.0119 62.0625L9.84945 53.9917Z" stroke="#6D6D6D" stroke-width="6.25"/>
<path d="M50 62.5V75" stroke="#67C4A7" stroke-width="6.25" stroke-linecap="round"/>
</svg>
