<svg width="100" height="100" viewBox="0 0 100 100" fill="none" xmlns="http://www.w3.org/2000/svg">
<path opacity="0.8" d="M87.375 25.8399L53 7.03126C52.0815 6.52377 51.0493 6.25757 50 6.25757C48.9507 6.25757 47.9185 6.52377 47 7.03126L12.625 25.8477C11.6433 26.3848 10.8238 27.1756 10.2522 28.1376C9.68047 29.0996 9.37754 30.1974 9.375 31.3164V68.6758C9.37754 69.7948 9.68047 70.8926 10.2522 71.8546C10.8238 72.8166 11.6433 73.6074 12.625 74.1445L47 92.961C47.9185 93.4684 48.9507 93.7346 50 93.7346C51.0493 93.7346 52.0815 93.4684 53 92.961L87.375 74.1445C88.3567 73.6074 89.1762 72.8166 89.7478 71.8546C90.3195 70.8926 90.6225 69.7948 90.625 68.6758V31.3203C90.6246 30.1993 90.3226 29.0991 89.7508 28.1348C89.179 27.1706 88.3584 26.3779 87.375 25.8399ZM84.375 68.6797L50 87.5L15.625 68.6797V31.3203L50 12.5L84.375 31.3164V68.6797Z" fill="#6D6D6D"/>
<circle cx="50" cy="50" r="13.5" stroke="#67C4A7" stroke-width="3"/>
</svg>
