<svg width="100" height="100" viewBox="0 0 100 100" fill="none" xmlns="http://www.w3.org/2000/svg">
<path opacity="0.8" d="M58.3538 16.6666H41.6455C25.8955 16.6666 18.0205 16.6666 13.1247 21.55C9.74966 24.9083 8.70383 29.6791 8.37466 37.4541C8.31216 38.9958 8.27883 39.7708 8.56633 40.2833C8.85799 40.7958 10.0038 41.4416 12.3038 42.725C13.5994 43.4472 14.6786 44.5024 15.4298 45.7813C16.1811 47.0603 16.5772 48.5167 16.5772 50C16.5772 51.4832 16.1811 52.9396 15.4298 54.2186C14.6786 55.4975 13.5994 56.5527 12.3038 57.275C10.0038 58.5625 8.85383 59.2041 8.56633 59.7166C8.27883 60.2291 8.31216 61 8.37883 62.5416C8.70383 70.3208 9.75383 75.0916 13.1247 78.45C18.0163 83.3333 25.8913 83.3333 41.6455 83.3333H58.3538C74.1038 83.3333 81.9788 83.3333 86.8747 78.45C90.2497 75.0916 91.2955 70.3208 91.6247 62.5458C91.6872 61.0041 91.7205 60.2291 91.433 59.7166C91.1413 59.2041 89.9955 58.5625 87.6955 57.275C86.3999 56.5527 85.3208 55.4975 84.5695 54.2186C83.8182 52.9396 83.4221 51.4832 83.4221 50C83.4221 48.5167 83.8182 47.0603 84.5695 45.7813C85.3208 44.5024 86.3999 43.4472 87.6955 42.725C89.9955 41.4416 91.1455 40.7958 91.433 40.2833C91.7205 39.7708 91.6872 39 91.6205 37.4541C91.2955 29.6791 90.2455 24.9125 86.8747 21.55C81.983 16.6666 74.108 16.6666 58.3538 16.6666Z" stroke="#6D6D6D" stroke-width="6.25"/>
<path d="M63 54V45" stroke="#67C4A7" stroke-width="6.25" stroke-linecap="round"/>
<path d="M63 75V66" stroke="#67C4A7" stroke-width="6.25" stroke-linecap="round"/>
<path d="M63 34V25" stroke="#67C4A7" stroke-width="6.25" stroke-linecap="round"/>
</svg>
