<svg width="100" height="100" viewBox="0 0 100 100" fill="none" xmlns="http://www.w3.org/2000/svg">
<path opacity="0.5" d="M25 37.5H41.6667" stroke="#67C4A7" stroke-width="6.25" stroke-linecap="round" stroke-linejoin="round"/>
<path opacity="0.8" d="M86.8042 41.6667H75.9625C68.525 41.6667 62.5 47.2626 62.5 54.1667C62.5 61.0709 68.5292 66.6667 75.9583 66.6667H86.8042C87.1542 66.6667 87.325 66.6667 87.4708 66.6584C89.7208 66.5209 91.5125 64.8584 91.6583 62.7709C91.6667 62.6376 91.6667 62.4751 91.6667 62.1542V46.1792C91.6667 45.8584 91.6667 45.6959 91.6583 45.5626C91.5083 43.4751 89.7208 41.8126 87.4708 41.6751C87.325 41.6667 87.1542 41.6667 86.8042 41.6667Z" stroke="#6D6D6D" stroke-width="6.25"/>
<path opacity="0.8" d="M87.3548 41.6667C87.0298 33.8667 85.9881 29.0834 82.6173 25.7167C77.7381 20.8334 69.8798 20.8334 54.1673 20.8334H41.6673C25.9548 20.8334 18.0965 20.8334 13.2173 25.7167C8.33398 30.5959 8.33398 38.4542 8.33398 54.1667C8.33398 69.8792 8.33398 77.7375 13.2173 82.6167C18.0965 87.5 25.9548 87.5 41.6673 87.5H54.1673C69.8798 87.5 77.7381 87.5 82.6173 82.6167C85.9881 79.25 87.034 74.4667 87.3548 66.6667" stroke="#6D6D6D" stroke-width="6.25"/>
<path opacity="0.5" d="M25 20.8334L40.5625 10.5125C42.7511 9.08895 45.3058 8.33118 47.9167 8.33118C50.5275 8.33118 53.0822 9.08895 55.2708 10.5125L70.8333 20.8334" stroke="#67C4A7" stroke-width="6.25" stroke-linecap="round"/>
<path opacity="0.8" d="M74.9629 54.1667H75.0004" stroke="#6D6D6D" stroke-width="8.33333" stroke-linecap="round" stroke-linejoin="round"/>
</svg>
